<svg id="visual" viewBox="0 0 960 300" width="960" height="300" xmlns="http://www.w3.org/2000/svg" xmlns:xlink="http://www.w3.org/1999/xlink" version="1.1"><rect x="0" y="0" width="960" height="300" fill="#202731"></rect><path d="M0 90L22.8 94.2C45.7 98.3 91.3 106.7 137 105C182.7 103.3 228.3 91.7 274 86.3C319.7 81 365.3 82 411.2 83.2C457 84.3 503 85.7 548.8 90.8C594.7 96 640.3 105 686 104C731.7 103 777.3 92 823 88.8C868.7 85.7 914.3 90.3 937.2 92.7L960 95L960 0L937.2 0C914.3 0 868.7 0 823 0C777.3 0 731.7 0 686 0C640.3 0 594.7 0 548.8 0C503 0 457 0 411.2 0C365.3 0 319.7 0 274 0C228.3 0 182.7 0 137 0C91.3 0 45.7 0 22.8 0L0 0Z" fill="#ff6f61"></path><path d="M0 95L22.8 89.8C45.7 84.7 91.3 74.3 137 71.2C182.7 68 228.3 72 274 71.3C319.7 70.7 365.3 65.3 411.2 67.3C457 69.3 503 78.7 548.8 78.8C594.7 79 640.3 70 686 67C731.7 64 777.3 67 823 71.5C868.7 76 914.3 82 937.2 85L960 88L960 0L937.2 0C914.3 0 868.7 0 823 0C777.3 0 731.7 0 686 0C640.3 0 594.7 0 548.8 0C503 0 457 0 411.2 0C365.3 0 319.7 0 274 0C228.3 0 182.7 0 137 0C91.3 0 45.7 0 22.8 0L0 0Z" fill="#f76455"></path><path d="M0 64L22.8 63.7C45.7 63.3 91.3 62.7 137 64C182.7 65.3 228.3 68.7 274 68.8C319.7 69 365.3 66 411.2 66C457 66 503 69 548.8 71.2C594.7 73.3 640.3 74.7 686 72.8C731.7 71 777.3 66 823 64.3C868.7 62.7 914.3 64.3 937.2 65.2L960 66L960 0L937.2 0C914.3 0 868.7 0 823 0C777.3 0 731.7 0 686 0C640.3 0 594.7 0 548.8 0C503 0 457 0 411.2 0C365.3 0 319.7 0 274 0C228.3 0 182.7 0 137 0C91.3 0 45.7 0 22.8 0L0 0Z" fill="#ee5849"></path><path d="M0 35L22.8 34.5C45.7 34 91.3 33 137 35C182.7 37 228.3 42 274 41.7C319.7 41.3 365.3 35.7 411.2 33.8C457 32 503 34 548.8 38.5C594.7 43 640.3 50 686 50.2C731.7 50.3 777.3 43.7 823 41.3C868.7 39 914.3 41 937.2 42L960 43L960 0L937.2 0C914.3 0 868.7 0 823 0C777.3 0 731.7 0 686 0C640.3 0 594.7 0 548.8 0C503 0 457 0 411.2 0C365.3 0 319.7 0 274 0C228.3 0 182.7 0 137 0C91.3 0 45.7 0 22.8 0L0 0Z" fill="#e64c3d"></path><path d="M0 33L22.8 29.8C45.7 26.7 91.3 20.3 137 17C182.7 13.7 228.3 13.3 274 15.5C319.7 17.7 365.3 22.3 411.2 23.2C457 24 503 21 548.8 20.7C594.7 20.3 640.3 22.7 686 24.3C731.7 26 777.3 27 823 27.2C868.7 27.3 914.3 26.7 937.2 26.3L960 26L960 0L937.2 0C914.3 0 868.7 0 823 0C777.3 0 731.7 0 686 0C640.3 0 594.7 0 548.8 0C503 0 457 0 411.2 0C365.3 0 319.7 0 274 0C228.3 0 182.7 0 137 0C91.3 0 45.7 0 22.8 0L0 0Z" fill="#dd3f31"></path></svg>