<svg id="visual" viewBox="0 0 960 300" width="960" height="300" xmlns="http://www.w3.org/2000/svg" xmlns:xlink="http://www.w3.org/1999/xlink" version="1.1"><rect x="0" y="0" width="960" height="300" fill="#202731"></rect><path d="M0 180L22.8 188.5C45.7 197 91.3 214 137 210.8C182.7 207.7 228.3 184.3 274 173.7C319.7 163 365.3 165 411.2 167.2C457 169.3 503 171.7 548.8 181.8C594.7 192 640.3 210 686 208.3C731.7 206.7 777.3 185.3 823 179C868.7 172.7 914.3 181.3 937.2 185.7L960 190L960 0L937.2 0C914.3 0 868.7 0 823 0C777.3 0 731.7 0 686 0C640.3 0 594.7 0 548.8 0C503 0 457 0 411.2 0C365.3 0 319.7 0 274 0C228.3 0 182.7 0 137 0C91.3 0 45.7 0 22.8 0L0 0Z" fill="#8e1c9f"></path><path d="M0 191L22.8 180.8C45.7 170.7 91.3 150.3 137 144C182.7 137.7 228.3 145.3 274 143.8C319.7 142.3 365.3 131.7 411.2 135.7C457 139.7 503 158.3 548.8 158.7C594.7 159 640.3 141 686 135C731.7 129 777.3 135 823 144.2C868.7 153.3 914.3 165.7 937.2 171.8L960 178L960 0L937.2 0C914.3 0 868.7 0 823 0C777.3 0 731.7 0 686 0C640.3 0 594.7 0 548.8 0C503 0 457 0 411.2 0C365.3 0 319.7 0 274 0C228.3 0 182.7 0 137 0C91.3 0 45.7 0 22.8 0L0 0Z" fill="#b30a96"></path><path d="M0 130L22.8 129.2C45.7 128.3 91.3 126.7 137 129.2C182.7 131.7 228.3 138.3 274 138.7C319.7 139 365.3 133 411.2 133.2C457 133.3 503 139.7 548.8 143.8C594.7 148 640.3 150 686 146.2C731.7 142.3 777.3 132.7 823 129.5C868.7 126.3 914.3 129.7 937.2 131.3L960 133L960 0L937.2 0C914.3 0 868.7 0 823 0C777.3 0 731.7 0 686 0C640.3 0 594.7 0 548.8 0C503 0 457 0 411.2 0C365.3 0 319.7 0 274 0C228.3 0 182.7 0 137 0C91.3 0 45.7 0 22.8 0L0 0Z" fill="#d20089"></path><path d="M0 71L22.8 69.8C45.7 68.7 91.3 66.3 137 70.2C182.7 74 228.3 84 274 83.5C319.7 83 365.3 72 411.2 68.3C457 64.7 503 68.3 548.8 77.2C594.7 86 640.3 100 686 100.7C731.7 101.3 777.3 88.7 823 84.3C868.7 80 914.3 84 937.2 86L960 88L960 0L937.2 0C914.3 0 868.7 0 823 0C777.3 0 731.7 0 686 0C640.3 0 594.7 0 548.8 0C503 0 457 0 411.2 0C365.3 0 319.7 0 274 0C228.3 0 182.7 0 137 0C91.3 0 45.7 0 22.8 0L0 0Z" fill="#eb0079"></path><path d="M0 66L22.8 60C45.7 54 91.3 42 137 35.5C182.7 29 228.3 28 274 32.2C319.7 36.3 365.3 45.7 411.2 47.2C457 48.7 503 42.3 548.8 41.7C594.7 41 640.3 46 686 49.3C731.7 52.7 777.3 54.3 823 54.7C868.7 55 914.3 54 937.2 53.5L960 53L960 0L937.2 0C914.3 0 868.7 0 823 0C777.3 0 731.7 0 686 0C640.3 0 594.7 0 548.8 0C503 0 457 0 411.2 0C365.3 0 319.7 0 274 0C228.3 0 182.7 0 137 0C91.3 0 45.7 0 22.8 0L0 0Z" fill="#ff0066"></path></svg>